# xmcd
# 
# Track frame offsets:
#     150
#     12997
#     24257
#     41255
#     59772
#     73735
#     97887
#     113397
#     136302
#     151727
#     178212
#     208095
#     223505
#     233820
#     242462
# 
# Disc length: 3530
# 
# Revision: 3
# Processed by: cddbd v1.5.2PL0 Copyright (c) Steve Scherf et al.
# Submitted via: BonkEnc v1.0.8
# 
DISCID=c10dc80f
DTITLE=Various Artist - The Blues Anthology
DYEAR=1999
DGENRE=Blues
TTITLE0=King Biscuit Boy with the Ronnie Hawkins Band - Get It Right
TTITLE1=Ike Turner - Ho...Ho
TTITLE2=Muddy Waters - I Got My Mojo Working
TTITLE3=Byther Smith - Come On In This House
TTITLE4=Lightnin' Hopkins - War Is Starting Again
TTITLE5=Troyce Key and J.J. Malone - I Gotta New Car/Framed
TTITLE6=Sonny Boy Williamson - All My Love In Vain
TTITLE7=Jim Johnson - Things I Used To Do
TTITLE8=Bo Diddley - Road Runner
TTITLE9=Mississippi Fred McDowell - 61 Highway
TTITLE10=Luther Allison - You Upset Me Baby
TTITLE11=Homesick James - Lonesome Road
TTITLE12=The Paul deLay Band - I Want To Be Loved
TTITLE13=Earl Hooker - Hot 'N' Heavy
TTITLE14=Charlie Musselwhite - Christo Redemptor
EXTD=
EXTT0=
EXTT1=
EXTT2=
EXTT3=
EXTT4=
EXTT5=
EXTT6=
EXTT7=
EXTT8=
EXTT9=
EXTT10=
EXTT11=
EXTT12=
EXTT13=
EXTT14=
PLAYORDER=
